#!OML:ASF E:\Style4\Style4.ASF
:FULLY-SPECIFIED
:DEGREES
1108
root 1.10984 17.1174 -2.58189 5.03841 -3.74932 5.40305
lowerback 17.7919 4.7682 3.14911
upperback 12.0843 6.58413 3.23677
thorax 3.03512 3.35885 0.699139
lowerneck 2.64812 -7.52695 -2.91259
upperneck -12.0392 -10.9756 -4.35691
head -4.57137 -5.10434 -0.433459
rclavicle 2.54444e-014 -7.95139e-015
rhumerus 59.0953 14.036 -45.1076
rradius 63.2537
rwrist -89.7757
rhand -8.93911 17.2981
rfingers 7.12502
rthumb 17.005 -11.9776
lclavicle 2.54444e-014 -7.95139e-015
lhumerus 58.4147 -1.68259 -3.13647
lradius 68.7848
lwrist 77.3121
lhand 16.3673 27.6094
lfingers 7.12502
lthumb 41.1371 52.4821
rfemur -35.4702 -3.83333 8.93776
rtibia 48.0617
rfoot -18.0064 -6.30455
rtoes -17.2288
lfemur -33.1992 7.99343 -29.3423
ltibia 44.4206
lfoot -18.6571 5.02999
ltoes -2.53039
1109
root 1.13684 17.1182 -2.58481 5.04314 -4.50912 5.24759
lowerback 17.8731 4.72299 3.08353
upperback 11.9932 6.51596 3.34673
thorax 2.87143 3.31101 0.845083
lowerneck 2.6482 -7.48489 -3.04343
upperneck -12.0096 -10.9305 -4.38603
head -4.55391 -5.07692 -0.424371
rclavicle 1.11319e-014 -3.18055e-014
rhumerus 58.9643 14.1049 -45.0429
rradius 63.237
rwrist -90.2634
rhand -9.29485 17.4102
rfingers 7.12502
rthumb 16.6626 -11.8946
lclavicle 1.11319e-014 -3.18055e-014
lhumerus 58.6531 -1.80238 -3.05414
lradius 68.5832
lwrist 77.233
lhand 16.1008 27.2922
lfingers 7.12502
lthumb 40.8868 52.2444
rfemur -35.6092 -3.30414 9.01779
rtibia 47.8713
rfoot -17.8269 -6.07907
rtoes -17.3288
lfemur -33.3217 8.383 -29.2525
ltibia 44.5944
lfoot -18.8829 5.19114
ltoes -1.33704
1110
root 1.16215 17.1147 -2.58861 5.06988 -5.25989 5.1631
lowerback 17.8717 4.68 2.91895
upperback 11.9363 6.43333 3.44041
thorax 2.7781 3.25238 1.04003
lowerneck 2.60028 -7.43815 -3.05895
upperneck -11.9494 -10.8765 -4.49258
head -4.52865 -5.04844 -0.462785
rclavicle 3.49861e-014 -4.6118e-014
rhumerus 58.8652 14.1114 -45.1156
rradius 63.1518
rwrist -90.3826
rhand -9.33401 17.2946
rfingers 7.12502
rthumb 16.6249 -12.0133
lclavicle 3.49861e-014 -4.6118e-014
lhumerus 58.8817 -1.89151 -3.03625
lradius 68.3852
lwrist 77.1892
lhand 15.5628 26.7776
lfingers 7.12502
lthumb 40.3812 51.8875
rfemur -35.8017 -2.75669 9.01399
rtibia 47.7074
rfoot -17.6506 -5.88514
rtoes -17.2104
lfemur -33.4776 8.80306 -29.2529
ltibia 44.772
lfoot -19.0667 5.37434
ltoes -0.922733
1111
root 1.18708 17.1121 -2.58902 5.02401 -6.03589 5.13965
lowerback 17.8427 4.61149 2.63292
upperback 11.9609 6.29667 3.51877
thorax 2.77746 3.16182 1.30167
lowerneck 2.63663 -7.322 -2.94334
upperneck -12.104 -10.7497 -4.66772
head -4.61162 -4.9773 -0.540784
rclavicle 4.77083e-015 -2.22639e-014
rhumerus 58.7705 14.2541 -45.4665
rradius 63.1214
rwrist -90.1799
rhand -9.31206 16.9689
rfingers 7.12502
rthumb 16.646 -12.3373
lclavicle 4.77083e-015 -2.22639e-014
lhumerus 58.9114 -1.92038 -3.07417
lradius 68.2282
lwrist 77.221
lhand 15.5498 26.6016
lfingers 7.12502
lthumb 40.3689 51.7153
rfemur -35.9324 -2.21952 8.94148
rtibia 47.5694
rfoot -17.5318 -5.61929
rtoes -16.6032
lfemur -33.528 9.24667 -29.306
ltibia 44.9392
lfoot -19.3015 5.59045
ltoes -0.877317
1112
root 1.21272 17.1118 -2.5889 5.01202 -6.80103 4.95632
lowerback 17.8295 4.50978 2.53012
upperback 11.979 6.14177 3.61598
thorax 2.78233 3.07122 1.4845
lowerneck 2.55705 -7.15671 -2.88088
upperneck -12.2106 -10.5426 -4.79029
head -4.64526 -4.87076 -0.603219
rclavicle 4.45278e-014 -7.95139e-015
rhumerus 58.7323 14.4183 -45.6984
rradius 63.1385
rwrist -90.1055
rhand -9.47715 16.8748
rfingers 7.12502
rthumb 16.4871 -12.4446
lclavicle 4.45278e-014 -7.95139e-015
lhumerus 58.8771 -1.94172 -3.05398
lradius 68.1166
lwrist 77.3815
lhand 16.0128 27.0069
lfingers 7.12502
lthumb 40.8041 51.9853
rfemur -36.0635 -1.66643 9.04779
rtibia 47.4109
rfoot -17.4511 -5.38273
rtoes -16.242
lfemur -33.6192 9.67784 -29.1914
ltibia 45.1231
lfoot -19.5605 5.86109
ltoes -0.563915
1113
root 1.23944 17.1124 -2.58992 5.01587 -7.56834 4.79892
lowerback 17.8857 4.43024 2.46202
upperback 11.9283 6.02596 3.67558
thorax 2.68489 3.00296 1.59324
lowerneck 2.525 -7.00551 -2.83743
upperneck -12.2542 -10.3465 -4.86197
head -4.65991 -4.77237 -0.644394
rclavicle -1.74931e-014 2.38542e-014
rhumerus 58.7494 14.4296 -45.7069
rradius 63.0538
rwrist -90.3656
rhand -9.77269 17.0736
rfingers 7.12502
rthumb 16.2025 -12.2693
lclavicle -1.74931e-014 2.38542e-014
lhumerus 59.0774 -2.03963 -2.98655
lradius 67.8687
lwrist 77.3441
lhand 16.4966 27.4993
lfingers 7.12502
lthumb 41.2585 52.333
rfemur -36.214 -1.16342 9.12711
rtibia 47.2443
rfoot -17.3259 -5.09947
rtoes -16.1596
lfemur -33.7265 10.1228 -29.117
ltibia 45.3095
lfoot -19.835 6.08088
ltoes -0.363075
1114
root 1.26638 17.1111 -2.5885 4.997 -8.35014 4.60449
lowerback 17.9443 4.38513 2.46598
upperback 11.8484 5.96627 3.72143
thorax 2.56337 2.96735 1.63798
lowerneck 2.66081 -6.89544 -2.67244
upperneck -12.2658 -10.2064 -4.94947
head -4.70506 -4.70379 -0.702012
rclavicle 4.29375e-014 1.59028e-015
rhumerus 58.5798 14.3906 -45.7669
rradius 62.9421
rwrist -90.6332
rhand -10.0285 17.0842
rfingers 7.12502
rthumb 15.9562 -12.2786
lclavicle 4.29375e-014 1.59028e-015
lhumerus 59.4134 -2.20253 -2.89523
lradius 67.546
lwrist 77.0153
lhand 17.2031 27.7309
lfingers 7.12502
lthumb 41.9212 52.3473
rfemur -36.3078 -0.651678 9.25016
rtibia 47.061
rfoot -17.1971 -4.81068
rtoes -16.1081
lfemur -33.8144 10.6413 -29.016
ltibia 45.5214
lfoot -20.0176 6.38118
ltoes -1.02856
1115
root 1.29137 17.1082 -2.58665 5.01484 -9.09677 4.47892
lowerback 18.0088 4.19659 2.32144
upperback 11.9871 5.68859 3.85629
thorax 2.65741 2.81154 1.90517
lowerneck 1.83845 -6.64461 -3.27922
upperneck -12.0212 -9.82476 -4.8204
head -4.4023 -4.52108 -0.613602
rclavicle -2.38542e-014 1.43125e-014
rhumerus 59.0899 14.4688 -45.6575
rradius 62.8208
rwrist -90.7831
rhand -10.1858 17.1455
rfingers 7.12502
rthumb 15.8047 -12.2293
lclavicle -2.38542e-014 1.43125e-014
lhumerus 59.1805 -1.98776 -2.67242
lradius 67.2207
lwrist 76.7845
lhand 17.7054 27.8058
lfingers 7.12502
lthumb 42.3918 52.2632
rfemur -36.4609 -0.169488 9.30483
rtibia 46.9043
rfoot -17.046 -4.5864
rtoes -16.4301
lfemur -33.9515 11.1166 -28.9913
ltibia 45.7318
lfoot -20.1898 6.70865
ltoes -1.72735
